<svg xmlns="http://www.w3.org/2000/svg" xmlns:xlink="http://www.w3.org/1999/xlink" width="375" zoomAndPan="magnify" viewBox="0 0 281.25 281.249989" height="375" preserveAspectRatio="xMidYMid meet" version="1.0"><path fill="#2baf29" d="M 20.132812 157.390625 C 20.132812 158.113281 19.949219 158.761719 19.582031 159.328125 C 19.214844 159.890625 18.722656 160.332031 18.097656 160.648438 C 17.484375 160.972656 16.804688 161.128906 16.066406 161.128906 L 9.226562 161.128906 L 9.226562 146.625 L 16.207031 146.625 C 16.890625 146.625 17.480469 146.808594 17.96875 147.175781 C 18.46875 147.535156 18.851562 147.996094 19.117188 148.566406 C 19.386719 149.125 19.523438 149.710938 19.523438 150.316406 C 19.523438 151.042969 19.339844 151.714844 18.964844 152.328125 C 18.597656 152.9375 18.085938 153.390625 17.433594 153.695312 C 18.265625 153.9375 18.921875 154.394531 19.40625 155.0625 C 19.890625 155.726562 20.132812 156.5 20.132812 157.390625 Z M 18.707031 157.144531 C 18.707031 156.652344 18.597656 156.203125 18.378906 155.789062 C 18.160156 155.375 17.867188 155.039062 17.492188 154.78125 C 17.117188 154.519531 16.6875 154.386719 16.207031 154.386719 L 10.652344 154.386719 L 10.652344 159.878906 L 16.066406 159.878906 C 16.554688 159.878906 16.996094 159.75 17.386719 159.492188 C 17.785156 159.234375 18.101562 158.902344 18.34375 158.488281 C 18.585938 158.066406 18.707031 157.621094 18.707031 157.144531 Z M 10.652344 147.875 L 10.652344 153.226562 L 15.632812 153.226562 C 16.113281 153.226562 16.539062 153.105469 16.90625 152.855469 C 17.273438 152.597656 17.5625 152.265625 17.785156 151.859375 C 18 151.449219 18.109375 151.011719 18.109375 150.550781 C 18.109375 150.0625 18.007812 149.613281 17.808594 149.207031 C 17.601562 148.804688 17.320312 148.480469 16.964844 148.238281 C 16.613281 147.996094 16.210938 147.875 15.761719 147.875 Z M 10.652344 147.875 " fill-opacity="1" fill-rule="nonzero"/><path fill="#2baf29" d="M 22.445312 146.625 L 27.179688 152.9375 L 31.902344 146.625 L 33.515625 146.625 L 27.960938 153.976562 L 33.351562 161.128906 L 31.738281 161.128906 L 27.179688 155.015625 L 22.609375 161.128906 L 20.972656 161.128906 L 26.359375 153.976562 L 20.808594 146.625 Z M 22.445312 146.625 " fill-opacity="1" fill-rule="nonzero"/><path fill="#2baf29" d="M 50.128906 147.886719 L 44.949219 147.886719 L 44.949219 161.128906 L 43.523438 161.128906 L 43.523438 147.886719 L 38.359375 147.886719 L 38.359375 146.625 L 50.128906 146.625 Z M 50.128906 147.886719 " fill-opacity="1" fill-rule="nonzero"/><path fill="#2baf29" d="M 62.027344 159.867188 L 62.027344 161.128906 L 52.292969 161.128906 L 52.292969 146.625 L 61.851562 146.625 L 61.851562 147.886719 L 53.71875 147.886719 L 53.71875 153.121094 L 60.800781 153.121094 L 60.800781 154.328125 L 53.71875 154.328125 L 53.71875 159.867188 Z M 62.027344 159.867188 " fill-opacity="1" fill-rule="nonzero"/><path fill="#2baf29" d="M 63.476562 153.777344 C 63.476562 152.890625 63.628906 152.019531 63.933594 151.171875 C 64.242188 150.324219 64.691406 149.546875 65.277344 148.84375 C 65.863281 148.144531 66.582031 147.589844 67.441406 147.175781 C 68.304688 146.753906 69.277344 146.542969 70.363281 146.542969 C 71.660156 146.542969 72.773438 146.839844 73.691406 147.429688 C 74.609375 148.023438 75.285156 148.785156 75.714844 149.710938 L 74.59375 150.398438 C 74.28125 149.761719 73.886719 149.253906 73.410156 148.878906 C 72.9375 148.507812 72.429688 148.238281 71.890625 148.074219 C 71.355469 147.910156 70.820312 147.828125 70.292969 147.828125 C 69.417969 147.828125 68.644531 148.003906 67.976562 148.355469 C 67.304688 148.699219 66.742188 149.160156 66.28125 149.746094 C 65.828125 150.324219 65.488281 150.96875 65.253906 151.683594 C 65.027344 152.394531 64.914062 153.121094 64.914062 153.859375 C 64.914062 154.664062 65.050781 155.433594 65.324219 156.171875 C 65.597656 156.90625 65.980469 157.558594 66.46875 158.125 C 66.960938 158.6875 67.53125 159.136719 68.1875 159.46875 C 68.847656 159.796875 69.570312 159.960938 70.351562 159.960938 C 70.894531 159.960938 71.453125 159.867188 72.019531 159.679688 C 72.585938 159.488281 73.121094 159.195312 73.621094 158.804688 C 74.117188 158.40625 74.523438 157.898438 74.824219 157.273438 L 76.007812 157.878906 C 75.703125 158.605469 75.238281 159.222656 74.617188 159.726562 C 73.992188 160.226562 73.296875 160.601562 72.523438 160.859375 C 71.753906 161.117188 71 161.246094 70.269531 161.246094 C 69.269531 161.246094 68.355469 161.03125 67.519531 160.601562 C 66.695312 160.175781 65.980469 159.605469 65.371094 158.898438 C 64.761719 158.179688 64.296875 157.378906 63.96875 156.488281 C 63.640625 155.59375 63.476562 154.6875 63.476562 153.777344 Z M 63.476562 153.777344 " fill-opacity="1" fill-rule="nonzero"/><path fill="#2baf29" d="M 89.890625 146.625 L 89.890625 161.128906 L 88.488281 161.128906 L 88.488281 154.351562 L 79.886719 154.351562 L 79.886719 161.128906 L 78.460938 161.128906 L 78.460938 146.625 L 79.886719 146.625 L 79.886719 153.078125 L 88.488281 153.078125 L 88.488281 146.625 Z M 89.890625 146.625 " fill-opacity="1" fill-rule="nonzero"/><path fill="#2baf29" d="M 103.890625 145.292969 L 105.097656 145.292969 L 105.097656 163.78125 L 103.890625 163.78125 Z M 103.890625 145.292969 " fill-opacity="1" fill-rule="nonzero"/><path fill="#ffffff" d="M 122.957031 146.625 L 124.164062 146.625 L 130.191406 161.128906 L 128.683594 161.128906 L 126.804688 156.59375 L 120.28125 156.59375 L 118.421875 161.128906 L 116.894531 161.128906 Z M 126.476562 155.472656 L 123.554688 148.296875 L 120.585938 155.472656 Z M 126.476562 155.472656 " fill-opacity="1" fill-rule="nonzero"/><path fill="#ffffff" d="M 131.660156 156.734375 L 131.660156 150.480469 L 133.050781 150.480469 L 133.050781 156.488281 C 133.050781 157.703125 133.253906 158.613281 133.667969 159.210938 C 134.089844 159.8125 134.707031 160.113281 135.527344 160.113281 C 136.070312 160.113281 136.597656 159.992188 137.105469 159.75 C 137.617188 159.511719 138.070312 159.171875 138.460938 158.734375 C 138.859375 158.289062 139.15625 157.773438 139.359375 157.191406 L 139.359375 150.480469 L 140.75 150.480469 L 140.75 159.457031 C 140.75 159.644531 140.789062 159.785156 140.867188 159.878906 C 140.953125 159.964844 141.078125 160.015625 141.242188 160.03125 L 141.242188 161.128906 C 141.078125 161.144531 140.949219 161.152344 140.855469 161.152344 C 140.761719 161.15625 140.671875 161.164062 140.585938 161.164062 C 140.3125 161.140625 140.078125 161.035156 139.886719 160.847656 C 139.691406 160.65625 139.585938 160.421875 139.570312 160.148438 L 139.523438 158.722656 C 139.0625 159.539062 138.429688 160.179688 137.628906 160.636719 C 136.835938 161.101562 135.976562 161.328125 135.058594 161.328125 C 133.9375 161.328125 133.085938 160.941406 132.511719 160.171875 C 131.941406 159.394531 131.660156 158.246094 131.660156 156.734375 Z M 131.660156 156.734375 " fill-opacity="1" fill-rule="nonzero"/><path fill="#ffffff" d="M 149.003906 160.613281 C 148.894531 160.660156 148.726562 160.742188 148.492188 160.847656 C 148.261719 160.960938 147.988281 161.054688 147.660156 161.128906 C 147.335938 161.203125 146.976562 161.246094 146.597656 161.246094 C 146.199219 161.246094 145.828125 161.167969 145.476562 161.023438 C 145.132812 160.878906 144.859375 160.648438 144.65625 160.347656 C 144.453125 160.035156 144.355469 159.65625 144.355469 159.210938 L 144.355469 151.59375 L 142.882812 151.59375 L 142.882812 150.480469 L 144.355469 150.480469 L 144.355469 146.894531 L 145.734375 146.894531 L 145.734375 150.480469 L 148.1875 150.480469 L 148.1875 151.59375 L 145.734375 151.59375 L 145.734375 158.816406 C 145.761719 159.199219 145.902344 159.488281 146.152344 159.679688 C 146.410156 159.867188 146.703125 159.960938 147.03125 159.960938 C 147.40625 159.960938 147.746094 159.898438 148.058594 159.773438 C 148.378906 159.640625 148.574219 159.546875 148.644531 159.492188 Z M 149.003906 160.613281 " fill-opacity="1" fill-rule="nonzero"/><path fill="#ffffff" d="M 155.09375 161.328125 C 154.328125 161.328125 153.625 161.179688 152.976562 160.894531 C 152.328125 160.601562 151.773438 160.199219 151.304688 159.691406 C 150.839844 159.175781 150.46875 158.59375 150.207031 157.9375 C 149.949219 157.277344 149.820312 156.578125 149.820312 155.835938 C 149.820312 155.070312 149.949219 154.363281 150.207031 153.707031 C 150.46875 153.046875 150.839844 152.460938 151.316406 151.953125 C 151.792969 151.441406 152.351562 151.039062 153 150.75 C 153.648438 150.457031 154.351562 150.304688 155.117188 150.304688 C 155.878906 150.304688 156.582031 150.457031 157.21875 150.75 C 157.855469 151.039062 158.414062 151.441406 158.890625 151.953125 C 159.363281 152.460938 159.734375 153.046875 159.988281 153.707031 C 160.253906 154.363281 160.386719 155.070312 160.386719 155.835938 C 160.386719 156.578125 160.253906 157.277344 159.988281 157.9375 C 159.734375 158.59375 159.371094 159.175781 158.902344 159.691406 C 158.4375 160.199219 157.878906 160.601562 157.230469 160.894531 C 156.582031 161.179688 155.871094 161.328125 155.09375 161.328125 Z M 151.234375 155.859375 C 151.234375 156.648438 151.40625 157.363281 151.75 158.007812 C 152.101562 158.65625 152.570312 159.171875 153.152344 159.550781 C 153.738281 159.925781 154.382812 160.113281 155.09375 160.113281 C 155.800781 160.113281 156.449219 159.921875 157.03125 159.539062 C 157.617188 159.160156 158.085938 158.636719 158.4375 157.972656 C 158.792969 157.3125 158.972656 156.59375 158.972656 155.824219 C 158.972656 155.027344 158.792969 154.304688 158.4375 153.648438 C 158.085938 152.996094 157.617188 152.476562 157.03125 152.09375 C 156.449219 151.714844 155.800781 151.523438 155.09375 151.523438 C 154.382812 151.523438 153.738281 151.71875 153.164062 152.117188 C 152.585938 152.515625 152.117188 153.039062 151.761719 153.683594 C 151.410156 154.332031 151.234375 155.058594 151.234375 155.859375 Z M 151.234375 155.859375 " fill-opacity="1" fill-rule="nonzero"/><path fill="#ffffff" d="M 178.550781 161.128906 L 177.160156 161.128906 L 177.160156 155.179688 C 177.160156 153.941406 176.960938 153.03125 176.5625 152.445312 C 176.171875 151.859375 175.585938 151.570312 174.808594 151.570312 C 174.007812 151.570312 173.285156 151.859375 172.648438 152.433594 C 172.015625 153.003906 171.574219 153.738281 171.316406 154.628906 L 171.316406 161.128906 L 169.925781 161.128906 L 169.925781 155.179688 C 169.925781 153.933594 169.730469 153.023438 169.351562 152.445312 C 168.96875 151.859375 168.382812 151.570312 167.597656 151.570312 C 166.804688 151.570312 166.085938 151.847656 165.449219 152.410156 C 164.808594 152.964844 164.359375 153.695312 164.105469 154.605469 L 164.105469 161.128906 L 162.714844 161.128906 L 162.714844 150.480469 L 163.976562 150.480469 L 163.976562 152.902344 C 164.425781 152.066406 165.003906 151.429688 165.707031 150.984375 C 166.40625 150.535156 167.183594 150.304688 168.042969 150.304688 C 168.929688 150.304688 169.648438 150.558594 170.195312 151.066406 C 170.738281 151.566406 171.074219 152.222656 171.199219 153.042969 C 171.679688 152.136719 172.265625 151.457031 172.953125 150.996094 C 173.644531 150.535156 174.425781 150.304688 175.300781 150.304688 C 175.898438 150.304688 176.40625 150.417969 176.820312 150.632812 C 177.230469 150.84375 177.5625 151.152344 177.8125 151.558594 C 178.070312 151.964844 178.257812 152.449219 178.375 153.019531 C 178.492188 153.578125 178.550781 154.207031 178.550781 154.898438 Z M 178.550781 161.128906 " fill-opacity="1" fill-rule="nonzero"/><path fill="#ffffff" d="M 180.632812 158.066406 C 180.632812 157.398438 180.824219 156.820312 181.207031 156.335938 C 181.585938 155.855469 182.113281 155.480469 182.785156 155.214844 C 183.460938 154.953125 184.238281 154.816406 185.121094 154.816406 C 185.640625 154.816406 186.179688 154.863281 186.734375 154.945312 C 187.296875 155.023438 187.792969 155.144531 188.230469 155.308594 L 188.230469 154.410156 C 188.230469 153.515625 187.964844 152.800781 187.4375 152.269531 C 186.90625 151.730469 186.167969 151.464844 185.226562 151.464844 C 184.65625 151.464844 184.097656 151.570312 183.542969 151.777344 C 182.988281 151.988281 182.414062 152.300781 181.816406 152.714844 L 181.289062 151.730469 C 181.980469 151.257812 182.660156 150.902344 183.324219 150.667969 C 183.992188 150.429688 184.671875 150.304688 185.367188 150.304688 C 186.675781 150.304688 187.710938 150.679688 188.476562 151.429688 C 189.238281 152.175781 189.621094 153.210938 189.621094 154.527344 L 189.621094 159.457031 C 189.621094 159.644531 189.660156 159.785156 189.738281 159.878906 C 189.824219 159.964844 189.957031 160.015625 190.136719 160.03125 L 190.136719 161.128906 C 189.980469 161.144531 189.847656 161.15625 189.738281 161.164062 C 189.628906 161.179688 189.546875 161.179688 189.492188 161.164062 C 189.15625 161.15625 188.898438 161.054688 188.722656 160.847656 C 188.539062 160.636719 188.445312 160.421875 188.429688 160.195312 L 188.417969 159.410156 C 187.933594 160.027344 187.3125 160.503906 186.546875 160.835938 C 185.792969 161.164062 185.015625 161.328125 184.222656 161.328125 C 183.542969 161.328125 182.929688 161.179688 182.375 160.894531 C 181.820312 160.601562 181.394531 160.207031 181.089844 159.714844 C 180.785156 159.21875 180.632812 158.667969 180.632812 158.066406 Z M 187.765625 158.886719 C 187.910156 158.691406 188.023438 158.507812 188.101562 158.335938 C 188.1875 158.15625 188.230469 157.996094 188.230469 157.855469 L 188.230469 156.300781 C 187.769531 156.132812 187.289062 156 186.792969 155.90625 C 186.292969 155.804688 185.792969 155.753906 185.285156 155.753906 C 184.296875 155.753906 183.492188 155.953125 182.878906 156.347656 C 182.261719 156.746094 181.953125 157.285156 181.953125 157.960938 C 181.953125 158.359375 182.054688 158.734375 182.257812 159.082031 C 182.46875 159.429688 182.765625 159.710938 183.160156 159.9375 C 183.554688 160.164062 184.019531 160.277344 184.550781 160.277344 C 185.21875 160.277344 185.839844 160.148438 186.417969 159.890625 C 187.003906 159.628906 187.449219 159.292969 187.765625 158.886719 Z M 187.765625 158.886719 " fill-opacity="1" fill-rule="nonzero"/><path fill="#ffffff" d="M 197.238281 161.328125 C 196.464844 161.328125 195.753906 161.179688 195.097656 160.894531 C 194.449219 160.601562 193.886719 160.195312 193.40625 159.679688 C 192.917969 159.160156 192.546875 158.566406 192.28125 157.902344 C 192.015625 157.234375 191.886719 156.523438 191.886719 155.777344 C 191.886719 154.769531 192.109375 153.851562 192.5625 153.019531 C 193.011719 152.183594 193.640625 151.527344 194.445312 151.042969 C 195.246094 150.550781 196.167969 150.304688 197.214844 150.304688 C 198.210938 150.304688 199.089844 150.535156 199.855469 150.996094 C 200.617188 151.449219 201.183594 152.058594 201.550781 152.832031 L 200.207031 153.261719 C 199.902344 152.71875 199.480469 152.292969 198.945312 151.988281 C 198.40625 151.679688 197.8125 151.523438 197.15625 151.523438 C 196.445312 151.523438 195.800781 151.707031 195.214844 152.082031 C 194.632812 152.449219 194.164062 152.953125 193.8125 153.589844 C 193.46875 154.230469 193.300781 154.957031 193.300781 155.777344 C 193.300781 156.578125 193.472656 157.308594 193.824219 157.960938 C 194.179688 158.617188 194.65625 159.140625 195.238281 159.527344 C 195.824219 159.917969 196.46875 160.113281 197.179688 160.113281 C 197.636719 160.113281 198.082031 160.03125 198.511719 159.867188 C 198.9375 159.703125 199.3125 159.480469 199.632812 159.199219 C 199.960938 158.921875 200.175781 158.617188 200.289062 158.289062 L 201.65625 158.699219 C 201.460938 159.207031 201.140625 159.664062 200.699219 160.066406 C 200.257812 160.460938 199.746094 160.777344 199.15625 161 C 198.5625 161.214844 197.921875 161.328125 197.238281 161.328125 Z M 196.992188 164.8125 C 196.65625 164.8125 196.28125 164.757812 195.859375 164.660156 C 195.445312 164.566406 195.046875 164.425781 194.667969 164.238281 L 195.074219 163.441406 C 195.363281 163.574219 195.636719 163.679688 195.894531 163.757812 C 196.152344 163.84375 196.441406 163.886719 196.769531 163.886719 C 197.21875 163.886719 197.566406 163.800781 197.8125 163.628906 C 198.058594 163.457031 198.183594 163.199219 198.183594 162.847656 C 198.183594 162.488281 198.058594 162.175781 197.8125 161.910156 C 197.566406 161.644531 197.214844 161.386719 196.746094 161.128906 L 197.34375 160.742188 C 197.871094 161.070312 198.300781 161.402344 198.628906 161.75 C 198.957031 162.097656 199.121094 162.539062 199.121094 163.070312 C 199.121094 163.613281 198.925781 164.039062 198.546875 164.34375 C 198.164062 164.652344 197.648438 164.8125 196.992188 164.8125 Z M 196.992188 164.8125 " fill-opacity="1" fill-rule="nonzero"/><path fill="#ffffff" d="M 202.984375 158.066406 C 202.984375 157.398438 203.171875 156.820312 203.554688 156.335938 C 203.9375 155.855469 204.460938 155.480469 205.132812 155.214844 C 205.8125 154.953125 206.589844 154.816406 207.472656 154.816406 C 207.992188 154.816406 208.527344 154.863281 209.085938 154.945312 C 209.644531 155.023438 210.140625 155.144531 210.582031 155.308594 L 210.582031 154.410156 C 210.582031 153.515625 210.316406 152.800781 209.785156 152.269531 C 209.253906 151.730469 208.519531 151.464844 207.578125 151.464844 C 207.007812 151.464844 206.445312 151.570312 205.894531 151.777344 C 205.339844 151.988281 204.761719 152.300781 204.164062 152.714844 L 203.636719 151.730469 C 204.332031 151.257812 205.007812 150.902344 205.671875 150.667969 C 206.339844 150.429688 207.023438 150.304688 207.71875 150.304688 C 209.027344 150.304688 210.058594 150.679688 210.824219 151.429688 C 211.589844 152.175781 211.972656 153.210938 211.972656 154.527344 L 211.972656 159.457031 C 211.972656 159.644531 212.007812 159.785156 212.089844 159.878906 C 212.171875 159.964844 212.304688 160.015625 212.484375 160.03125 L 212.484375 161.128906 C 212.328125 161.144531 212.195312 161.15625 212.089844 161.164062 C 211.976562 161.179688 211.894531 161.179688 211.84375 161.164062 C 211.507812 161.15625 211.25 161.054688 211.070312 160.847656 C 210.890625 160.636719 210.792969 160.421875 210.777344 160.195312 L 210.765625 159.410156 C 210.28125 160.027344 209.660156 160.503906 208.898438 160.835938 C 208.140625 161.164062 207.367188 161.328125 206.570312 161.328125 C 205.894531 161.328125 205.277344 161.179688 204.726562 160.894531 C 204.167969 160.601562 203.742188 160.207031 203.4375 159.714844 C 203.136719 159.21875 202.984375 158.667969 202.984375 158.066406 Z M 210.113281 158.886719 C 210.257812 158.691406 210.371094 158.507812 210.453125 158.335938 C 210.535156 158.15625 210.582031 157.996094 210.582031 157.855469 L 210.582031 156.300781 C 210.117188 156.132812 209.640625 156 209.144531 155.90625 C 208.644531 155.804688 208.140625 155.753906 207.636719 155.753906 C 206.644531 155.753906 205.839844 155.953125 205.226562 156.347656 C 204.609375 156.746094 204.304688 157.285156 204.304688 157.960938 C 204.304688 158.359375 204.402344 158.734375 204.609375 159.082031 C 204.820312 159.429688 205.117188 159.710938 205.507812 159.9375 C 205.90625 160.164062 206.367188 160.277344 206.898438 160.277344 C 207.566406 160.277344 208.191406 160.148438 208.769531 159.890625 C 209.351562 159.628906 209.800781 159.292969 210.113281 158.886719 Z M 208.921875 148.097656 C 208.515625 148.097656 208.167969 148.03125 207.878906 147.898438 C 207.589844 147.757812 207.332031 147.625 207.097656 147.488281 C 206.871094 147.347656 206.605469 147.277344 206.304688 147.277344 C 206.003906 147.277344 205.78125 147.355469 205.636719 147.5 C 205.496094 147.640625 205.402344 147.792969 205.355469 147.957031 C 205.308594 148.121094 205.285156 148.222656 205.285156 148.261719 L 204.421875 148.261719 C 204.421875 148.191406 204.445312 148.054688 204.492188 147.851562 C 204.542969 147.648438 204.636719 147.4375 204.773438 147.210938 C 204.910156 146.984375 205.097656 146.785156 205.332031 146.613281 C 205.574219 146.445312 205.886719 146.355469 206.28125 146.355469 C 206.660156 146.355469 206.984375 146.433594 207.25 146.578125 C 207.519531 146.71875 207.78125 146.863281 208.03125 147.011719 C 208.28125 147.152344 208.570312 147.222656 208.898438 147.222656 C 209.253906 147.222656 209.515625 147.144531 209.679688 146.988281 C 209.84375 146.824219 209.949219 146.660156 209.996094 146.496094 C 210.042969 146.332031 210.066406 146.238281 210.066406 146.214844 L 210.917969 146.214844 C 210.917969 146.285156 210.890625 146.421875 210.835938 146.613281 C 210.78125 146.808594 210.6875 147.023438 210.546875 147.253906 C 210.40625 147.488281 210.199219 147.6875 209.925781 147.851562 C 209.660156 148.015625 209.324219 148.097656 208.921875 148.097656 Z M 208.921875 148.097656 " fill-opacity="1" fill-rule="nonzero"/><path fill="#ffffff" d="M 219.503906 161.328125 C 218.738281 161.328125 218.035156 161.179688 217.390625 160.894531 C 216.742188 160.601562 216.1875 160.199219 215.71875 159.691406 C 215.25 159.175781 214.882812 158.59375 214.621094 157.9375 C 214.363281 157.277344 214.234375 156.578125 214.234375 155.835938 C 214.234375 155.070312 214.363281 154.363281 214.621094 153.707031 C 214.882812 153.046875 215.253906 152.460938 215.730469 151.953125 C 216.203125 151.441406 216.765625 151.039062 217.414062 150.75 C 218.058594 150.457031 218.761719 150.304688 219.527344 150.304688 C 220.292969 150.304688 220.992188 150.457031 221.632812 150.75 C 222.269531 151.039062 222.828125 151.441406 223.304688 151.953125 C 223.777344 152.460938 224.144531 153.046875 224.402344 153.707031 C 224.664062 154.363281 224.800781 155.070312 224.800781 155.835938 C 224.800781 156.578125 224.664062 157.277344 224.402344 157.9375 C 224.144531 158.59375 223.78125 159.175781 223.316406 159.691406 C 222.847656 160.199219 222.289062 160.601562 221.644531 160.894531 C 220.996094 161.179688 220.28125 161.328125 219.503906 161.328125 Z M 215.648438 155.859375 C 215.648438 156.648438 215.816406 157.363281 216.164062 158.007812 C 216.511719 158.65625 216.980469 159.171875 217.566406 159.550781 C 218.148438 159.925781 218.796875 160.113281 219.503906 160.113281 C 220.210938 160.113281 220.859375 159.921875 221.445312 159.539062 C 222.03125 159.160156 222.496094 158.636719 222.847656 157.972656 C 223.203125 157.3125 223.386719 156.59375 223.386719 155.824219 C 223.386719 155.027344 223.203125 154.304688 222.847656 153.648438 C 222.496094 152.996094 222.03125 152.476562 221.445312 152.09375 C 220.859375 151.714844 220.210938 151.523438 219.503906 151.523438 C 218.796875 151.523438 218.152344 151.71875 217.578125 152.117188 C 217 152.515625 216.53125 153.039062 216.175781 153.683594 C 215.824219 154.332031 215.648438 155.058594 215.648438 155.859375 Z M 215.648438 155.859375 " fill-opacity="1" fill-rule="nonzero"/><path fill="#ffffff" d="M 242.46875 161.128906 L 235.234375 153.507812 C 234.648438 152.886719 234.175781 152.351562 233.820312 151.90625 C 233.46875 151.464844 233.21875 151.0625 233.070312 150.703125 C 232.921875 150.339844 232.847656 149.980469 232.847656 149.628906 C 232.847656 149.03125 233.007812 148.492188 233.328125 148.015625 C 233.648438 147.542969 234.082031 147.160156 234.636719 146.871094 C 235.191406 146.582031 235.804688 146.4375 236.484375 146.4375 C 237.121094 146.4375 237.695312 146.558594 238.203125 146.800781 C 238.714844 147.035156 239.121094 147.367188 239.417969 147.792969 C 239.722656 148.222656 239.875 148.726562 239.875 149.300781 C 239.875 149.917969 239.699219 150.46875 239.347656 150.949219 C 239.003906 151.433594 238.554688 151.882812 238.003906 152.292969 C 237.449219 152.707031 236.839844 153.121094 236.179688 153.542969 C 235.621094 153.925781 235.097656 154.3125 234.625 154.699219 C 234.160156 155.09375 233.789062 155.503906 233.515625 155.941406 C 233.25 156.378906 233.117188 156.875 233.117188 157.4375 C 233.117188 158.039062 233.285156 158.542969 233.621094 158.957031 C 233.960938 159.371094 234.394531 159.679688 234.917969 159.890625 C 235.445312 160.101562 235.988281 160.207031 236.542969 160.207031 C 237.28125 160.207031 237.960938 160.042969 238.578125 159.714844 C 239.199219 159.382812 239.738281 158.917969 240.199219 158.324219 C 240.667969 157.734375 241.023438 157.054688 241.277344 156.289062 C 241.523438 155.527344 241.648438 154.71875 241.648438 153.859375 L 242.84375 153.859375 C 242.84375 154.898438 242.679688 155.867188 242.351562 156.769531 C 242.023438 157.675781 241.566406 158.46875 240.984375 159.152344 C 240.40625 159.832031 239.722656 160.367188 238.9375 160.753906 C 238.160156 161.136719 237.3125 161.328125 236.402344 161.328125 C 235.5625 161.328125 234.785156 161.164062 234.078125 160.835938 C 233.367188 160.503906 232.800781 160.042969 232.382812 159.457031 C 231.96875 158.867188 231.761719 158.179688 231.761719 157.390625 C 231.761719 156.660156 231.933594 156.015625 232.277344 155.460938 C 232.628906 154.910156 233.078125 154.414062 233.632812 153.976562 C 234.183594 153.53125 234.769531 153.109375 235.386719 152.714844 C 236.007812 152.300781 236.558594 151.925781 237.046875 151.582031 C 237.527344 151.230469 237.902344 150.875 238.179688 150.515625 C 238.449219 150.160156 238.589844 149.765625 238.589844 149.335938 C 238.589844 148.808594 238.390625 148.375 237.992188 148.039062 C 237.601562 147.695312 237.097656 147.523438 236.484375 147.523438 C 236.03125 147.523438 235.625 147.625 235.269531 147.816406 C 234.917969 148.003906 234.640625 148.253906 234.4375 148.566406 C 234.234375 148.878906 234.136719 149.214844 234.136719 149.582031 C 234.136719 149.816406 234.1875 150.0625 234.296875 150.316406 C 234.40625 150.570312 234.617188 150.878906 234.929688 151.253906 C 235.238281 151.628906 235.6875 152.125 236.273438 152.738281 L 244.304688 161.128906 Z M 242.46875 161.128906 " fill-opacity="1" fill-rule="nonzero"/><path fill="#ffffff" d="M 251.460938 146.625 L 252.886719 146.625 L 252.886719 161.128906 L 251.460938 161.128906 Z M 251.460938 146.625 " fill-opacity="1" fill-rule="nonzero"/><path fill="#ffffff" d="M 261.015625 146.625 L 262.222656 146.625 L 268.25 161.128906 L 266.742188 161.128906 L 264.863281 156.59375 L 258.339844 156.59375 L 256.480469 161.128906 L 254.953125 161.128906 Z M 264.535156 155.472656 L 261.613281 148.296875 L 258.644531 155.472656 Z M 264.535156 155.472656 " fill-opacity="1" fill-rule="nonzero"/></svg>