<svg xmlns="http://www.w3.org/2000/svg" xmlns:xlink="http://www.w3.org/1999/xlink" width="2000" zoomAndPan="magnify" viewBox="0 0 1500 449.999984" height="600" preserveAspectRatio="xMidYMid meet" version="1.0"><defs><g/><clipPath id="bb06a77997"><path d="M 0 0 L 1500 0 L 1500 449.589844 L 0 449.589844 Z M 0 0 " clip-rule="nonzero"/></clipPath><clipPath id="524534bf1c"><path d="M 907.726562 271.78125 L 909.664062 271.78125 L 909.664062 273.757812 L 907.726562 273.757812 Z M 907.726562 271.78125 " clip-rule="nonzero"/></clipPath><clipPath id="0fe6a832ca"><path d="M 909.65625 272.480469 C 909.65625 273.09375 909.589844 273.25 909.484375 273.367188 C 909.394531 273.5 909.261719 273.605469 909.121094 273.667969 C 908.988281 273.722656 908.804688 273.761719 908.664062 273.746094 C 908.503906 273.734375 908.335938 273.683594 908.21875 273.605469 C 908.085938 273.527344 907.957031 273.410156 907.878906 273.277344 C 907.800781 273.148438 907.75 272.976562 907.734375 272.832031 C 907.734375 272.675781 907.761719 272.507812 907.828125 272.363281 C 907.890625 272.234375 907.996094 272.089844 908.113281 271.996094 C 908.230469 271.90625 908.386719 271.839844 908.542969 271.800781 C 908.6875 271.777344 908.871094 271.789062 909.015625 271.839844 C 909.160156 271.878906 909.40625 272.078125 909.40625 272.078125 " clip-rule="nonzero"/></clipPath><clipPath id="8f3543b98c"><path d="M 910.742188 0.515625 L 912.683594 0.515625 L 912.683594 2.488281 L 910.742188 2.488281 Z M 910.742188 0.515625 " clip-rule="nonzero"/></clipPath><clipPath id="87da2bb895"><path d="M 912.671875 1.214844 C 912.671875 1.828125 912.605469 1.984375 912.5 2.101562 C 912.410156 2.234375 912.28125 2.335938 912.136719 2.402344 C 911.992188 2.453125 911.824219 2.496094 911.679688 2.480469 C 911.523438 2.46875 911.351562 2.414062 911.222656 2.335938 C 911.105469 2.257812 910.972656 2.140625 910.894531 2.011719 C 910.816406 1.878906 910.765625 1.710938 910.75 1.566406 C 910.75 1.410156 910.777344 1.242188 910.84375 1.097656 C 910.910156 0.964844 911.011719 0.824219 911.128906 0.730469 C 911.246094 0.640625 911.40625 0.574219 911.5625 0.535156 C 911.703125 0.507812 911.886719 0.523438 912.03125 0.574219 C 912.175781 0.613281 912.421875 0.808594 912.421875 0.808594 " clip-rule="nonzero"/></clipPath></defs><g clip-path="url(#bb06a77997)"><path fill="#000000" d="M -29.804688 -58.910156 L 1579.695312 -58.910156 L 1579.695312 449.589844 L -29.804688 449.589844 Z M -29.804688 -58.910156 " fill-opacity="1" fill-rule="nonzero"/></g><g fill="#1ac335" fill-opacity="1"><g transform="translate(0.0000271667, 283.55885)"><g><path d="M 57.9375 -17.015625 C 57.9375 -13.734375 57.097656 -10.804688 55.421875 -8.234375 C 53.753906 -5.660156 51.507812 -3.644531 48.6875 -2.1875 C 45.863281 -0.726562 42.78125 0 39.4375 0 L 8.28125 0 L 8.28125 -66.03125 L 40.078125 -66.03125 C 43.179688 -66.03125 45.863281 -65.207031 48.125 -63.5625 C 50.382812 -61.914062 52.117188 -59.804688 53.328125 -57.234375 C 54.546875 -54.660156 55.15625 -51.984375 55.15625 -49.203125 C 55.15625 -45.910156 54.316406 -42.867188 52.640625 -40.078125 C 50.960938 -37.285156 48.632812 -35.210938 45.65625 -33.859375 C 49.445312 -32.734375 52.441406 -30.648438 54.640625 -27.609375 C 56.835938 -24.578125 57.9375 -21.046875 57.9375 -17.015625 Z M 51.421875 -18.140625 C 51.421875 -20.367188 50.925781 -22.425781 49.9375 -24.3125 C 48.945312 -26.207031 47.597656 -27.742188 45.890625 -28.921875 C 44.191406 -30.097656 42.253906 -30.6875 40.078125 -30.6875 L 14.78125 -30.6875 L 14.78125 -5.671875 L 39.4375 -5.671875 C 41.664062 -5.671875 43.675781 -6.257812 45.46875 -7.4375 C 47.269531 -8.613281 48.710938 -10.144531 49.796875 -12.03125 C 50.878906 -13.925781 51.421875 -15.960938 51.421875 -18.140625 Z M 14.78125 -60.359375 L 14.78125 -35.984375 L 37.484375 -35.984375 C 39.648438 -35.984375 41.566406 -36.554688 43.234375 -37.703125 C 44.910156 -38.859375 46.242188 -40.363281 47.234375 -42.21875 C 48.234375 -44.082031 48.734375 -46.066406 48.734375 -48.171875 C 48.734375 -50.398438 48.265625 -52.429688 47.328125 -54.265625 C 46.398438 -56.097656 45.128906 -57.570312 43.515625 -58.6875 C 41.910156 -59.800781 40.082031 -60.359375 38.03125 -60.359375 Z M 14.78125 -60.359375 "/></g></g></g><g fill="#1ac335" fill-opacity="1"><g transform="translate(69.378055, 283.55885)"><g><path d="M 7.90625 -66.03125 L 29.484375 -37.296875 L 50.96875 -66.03125 L 58.3125 -66.03125 L 33.015625 -32.546875 L 57.5625 0 L 50.21875 0 L 29.484375 -27.8125 L 8.65625 0 L 1.203125 0 L 25.765625 -32.546875 L 0.46875 -66.03125 Z M 7.90625 -66.03125 "/></g></g></g><g fill="#1ac335" fill-opacity="1"><g transform="translate(135.59408, 283.55885)"><g/></g></g><g fill="#1ac335" fill-opacity="1"><g transform="translate(166.749095, 283.55885)"><g><path d="M 55.15625 -60.265625 L 31.625 -60.265625 L 31.625 0 L 25.109375 0 L 25.109375 -60.265625 L 1.578125 -60.265625 L 1.578125 -66.03125 L 55.15625 -66.03125 Z M 55.15625 -60.265625 "/></g></g></g><g fill="#1ac335" fill-opacity="1"><g transform="translate(230.919122, 283.55885)"><g><path d="M 52.640625 -5.765625 L 52.640625 0 L 8.28125 0 L 8.28125 -66.03125 L 51.796875 -66.03125 L 51.796875 -60.265625 L 14.78125 -60.265625 L 14.78125 -36.453125 L 47.0625 -36.453125 L 47.0625 -30.96875 L 14.78125 -30.96875 L 14.78125 -5.765625 Z M 52.640625 -5.765625 "/></g></g></g><g fill="#1ac335" fill-opacity="1"><g transform="translate(294.996144, 283.55885)"><g><path d="M 3.90625 -33.484375 C 3.90625 -37.515625 4.601562 -41.46875 6 -45.34375 C 7.394531 -49.21875 9.425781 -52.75 12.09375 -55.9375 C 14.757812 -59.132812 18.046875 -61.675781 21.953125 -63.5625 C 25.859375 -65.457031 30.289062 -66.40625 35.25 -66.40625 C 41.132812 -66.40625 46.171875 -65.054688 50.359375 -62.359375 C 54.546875 -59.660156 57.628906 -56.203125 59.609375 -51.984375 L 54.5 -48.828125 C 53.070312 -51.742188 51.269531 -54.050781 49.09375 -55.75 C 46.925781 -57.457031 44.617188 -58.679688 42.171875 -59.421875 C 39.722656 -60.171875 37.289062 -60.546875 34.875 -60.546875 C 30.90625 -60.546875 27.398438 -59.753906 24.359375 -58.171875 C 21.328125 -56.585938 18.769531 -54.476562 16.6875 -51.84375 C 14.613281 -49.207031 13.050781 -46.257812 12 -43 C 10.945312 -39.75 10.421875 -36.453125 10.421875 -33.109375 C 10.421875 -29.453125 11.039062 -25.945312 12.28125 -22.59375 C 13.519531 -19.25 15.253906 -16.289062 17.484375 -13.71875 C 19.710938 -11.144531 22.332031 -9.097656 25.34375 -7.578125 C 28.351562 -6.054688 31.625 -5.296875 35.15625 -5.296875 C 37.632812 -5.296875 40.175781 -5.726562 42.78125 -6.59375 C 45.382812 -7.46875 47.816406 -8.800781 50.078125 -10.59375 C 52.335938 -12.394531 54.148438 -14.722656 55.515625 -17.578125 L 60.921875 -14.78125 C 59.554688 -11.5 57.445312 -8.707031 54.59375 -6.40625 C 51.738281 -4.113281 48.554688 -2.378906 45.046875 -1.203125 C 41.546875 -0.0234375 38.125 0.5625 34.78125 0.5625 C 30.257812 0.5625 26.101562 -0.410156 22.3125 -2.359375 C 18.53125 -4.316406 15.257812 -6.921875 12.5 -10.171875 C 9.75 -13.429688 7.628906 -17.09375 6.140625 -21.15625 C 4.648438 -25.21875 3.90625 -29.328125 3.90625 -33.484375 Z M 3.90625 -33.484375 "/></g></g></g><g fill="#1ac335" fill-opacity="1"><g transform="translate(366.234191, 283.55885)"><g><path d="M 60.359375 -66.03125 L 60.359375 0 L 53.9375 0 L 53.9375 -30.875 L 14.78125 -30.875 L 14.78125 0 L 8.28125 0 L 8.28125 -66.03125 L 14.78125 -66.03125 L 14.78125 -36.640625 L 53.9375 -36.640625 L 53.9375 -66.03125 Z M 60.359375 -66.03125 "/></g></g></g><g fill="#1ac335" fill-opacity="1"><g transform="translate(442.308236, 283.55885)"><g/></g></g><g fill="#ffffff" fill-opacity="1"><g transform="translate(473.47265, 283.55885)"><g><path d="M 8 12.09375 L 8 -72.078125 L 13.484375 -72.078125 L 13.484375 12.09375 Z M 8 12.09375 "/></g></g></g><g fill="#ffffff" fill-opacity="1"><g transform="translate(502.395656, 283.55885)"><g/></g></g><g fill="#ffffff" fill-opacity="1"><g transform="translate(533.550672, 283.55885)"><g><path d="M 28.734375 -66.03125 L 34.21875 -66.03125 L 61.65625 0 L 54.78125 0 L 46.21875 -20.640625 L 16.546875 -20.640625 L 8.09375 0 L 1.109375 0 Z M 44.734375 -25.765625 L 31.4375 -58.40625 L 17.953125 -25.765625 Z M 44.734375 -25.765625 "/></g></g></g><g fill="#ffffff" fill-opacity="1"><g transform="translate(603.858703, 283.55885)"><g><path d="M 35.15625 0.46875 C 29.945312 0.46875 25.539062 -0.457031 21.9375 -2.3125 C 18.34375 -4.175781 15.492188 -6.675781 13.390625 -9.8125 C 11.285156 -12.945312 9.75 -16.492188 8.78125 -20.453125 C 7.820312 -24.421875 7.34375 -28.515625 7.34375 -32.734375 L 7.34375 -66.03125 L 13.765625 -66.03125 L 13.765625 -32.734375 C 13.765625 -29.328125 14.117188 -25.976562 14.828125 -22.6875 C 15.546875 -19.40625 16.707031 -16.460938 18.3125 -13.859375 C 19.925781 -11.253906 22.097656 -9.191406 24.828125 -7.671875 C 27.554688 -6.148438 30.96875 -5.390625 35.0625 -5.390625 C 39.28125 -5.390625 42.765625 -6.179688 45.515625 -7.765625 C 48.273438 -9.347656 50.445312 -11.441406 52.03125 -14.046875 C 53.613281 -16.648438 54.742188 -19.578125 55.421875 -22.828125 C 56.109375 -26.085938 56.453125 -29.390625 56.453125 -32.734375 L 56.453125 -66.03125 L 62.96875 -66.03125 L 62.96875 -32.734375 C 62.96875 -28.335938 62.46875 -24.125 61.46875 -20.09375 C 60.476562 -16.0625 58.878906 -12.523438 56.671875 -9.484375 C 54.472656 -6.441406 51.609375 -4.019531 48.078125 -2.21875 C 44.546875 -0.425781 40.238281 0.46875 35.15625 0.46875 Z M 35.15625 0.46875 "/></g></g></g><g fill="#ffffff" fill-opacity="1"><g transform="translate(681.513726, 283.55885)"><g><path d="M 55.15625 -60.265625 L 31.625 -60.265625 L 31.625 0 L 25.109375 0 L 25.109375 -60.265625 L 1.578125 -60.265625 L 1.578125 -66.03125 L 55.15625 -66.03125 Z M 55.15625 -60.265625 "/></g></g></g><g fill="#ffffff" fill-opacity="1"><g transform="translate(745.683766, 283.55885)"><g><path d="M 34.875 0.46875 C 30.226562 0.46875 26.007812 -0.457031 22.21875 -2.3125 C 18.4375 -4.175781 15.179688 -6.703125 12.453125 -9.890625 C 9.734375 -13.085938 7.628906 -16.6875 6.140625 -20.6875 C 4.648438 -24.6875 3.90625 -28.796875 3.90625 -33.015625 C 3.90625 -37.421875 4.679688 -41.617188 6.234375 -45.609375 C 7.785156 -49.609375 9.96875 -53.175781 12.78125 -56.3125 C 15.601562 -59.445312 18.90625 -61.925781 22.6875 -63.75 C 26.46875 -65.582031 30.5625 -66.5 34.96875 -66.5 C 39.613281 -66.5 43.828125 -65.535156 47.609375 -63.609375 C 51.390625 -61.691406 54.628906 -59.117188 57.328125 -55.890625 C 60.023438 -52.671875 62.117188 -49.078125 63.609375 -45.109375 C 65.097656 -41.140625 65.84375 -37.078125 65.84375 -32.921875 C 65.84375 -28.515625 65.066406 -24.3125 63.515625 -20.3125 C 61.960938 -16.320312 59.789062 -12.757812 57 -9.625 C 54.21875 -6.488281 50.9375 -4.019531 47.15625 -2.21875 C 43.375 -0.425781 39.28125 0.46875 34.875 0.46875 Z M 10.421875 -33.015625 C 10.421875 -29.421875 11.007812 -25.960938 12.1875 -22.640625 C 13.363281 -19.328125 15.035156 -16.382812 17.203125 -13.8125 C 19.367188 -11.238281 21.957031 -9.191406 24.96875 -7.671875 C 27.976562 -6.148438 31.28125 -5.390625 34.875 -5.390625 C 38.65625 -5.390625 42.046875 -6.179688 45.046875 -7.765625 C 48.054688 -9.347656 50.628906 -11.457031 52.765625 -14.09375 C 54.910156 -16.726562 56.539062 -19.6875 57.65625 -22.96875 C 58.769531 -26.257812 59.328125 -29.609375 59.328125 -33.015625 C 59.328125 -36.609375 58.738281 -40.046875 57.5625 -43.328125 C 56.382812 -46.617188 54.695312 -49.566406 52.5 -52.171875 C 50.300781 -54.773438 47.710938 -56.820312 44.734375 -58.3125 C 41.753906 -59.800781 38.46875 -60.546875 34.875 -60.546875 C 31.15625 -60.546875 27.789062 -59.769531 24.78125 -58.21875 C 21.78125 -56.664062 19.207031 -54.570312 17.0625 -51.9375 C 14.925781 -49.300781 13.285156 -46.335938 12.140625 -43.046875 C 10.992188 -39.765625 10.421875 -36.421875 10.421875 -33.015625 Z M 10.421875 -33.015625 "/></g></g></g><g fill="#ffffff" fill-opacity="1"><g transform="translate(822.96681, 283.55885)"><g><path d="M 66.78125 0 L 66.78125 -53.75 L 42.875 -12 L 38.78125 -12 L 14.78125 -53.75 L 14.78125 0 L 8.28125 0 L 8.28125 -66.03125 L 14.96875 -66.03125 L 40.734375 -20.828125 L 66.6875 -66.03125 L 73.28125 -66.03125 L 73.28125 0 Z M 66.78125 0 "/></g></g></g><g fill="#ffffff" fill-opacity="1"><g transform="translate(911.967825, 283.55885)"><g><path d="M 28.734375 -66.03125 L 34.21875 -66.03125 L 61.65625 0 L 54.78125 0 L 46.21875 -20.640625 L 16.546875 -20.640625 L 8.09375 0 L 1.109375 0 Z M 44.734375 -25.765625 L 31.4375 -58.40625 L 17.953125 -25.765625 Z M 44.734375 -25.765625 "/></g></g></g><g fill="#ffffff" fill-opacity="1"><g transform="translate(982.275834, 283.55885)"><g><path d="M 3.90625 -33.484375 C 3.90625 -37.515625 4.601562 -41.46875 6 -45.34375 C 7.394531 -49.21875 9.425781 -52.75 12.09375 -55.9375 C 14.757812 -59.132812 18.046875 -61.675781 21.953125 -63.5625 C 25.859375 -65.457031 30.289062 -66.40625 35.25 -66.40625 C 41.132812 -66.40625 46.171875 -65.054688 50.359375 -62.359375 C 54.546875 -59.660156 57.628906 -56.203125 59.609375 -51.984375 L 54.5 -48.828125 C 53.070312 -51.742188 51.269531 -54.050781 49.09375 -55.75 C 46.925781 -57.457031 44.617188 -58.679688 42.171875 -59.421875 C 39.722656 -60.171875 37.289062 -60.546875 34.875 -60.546875 C 30.90625 -60.546875 27.398438 -59.753906 24.359375 -58.171875 C 21.328125 -56.585938 18.769531 -54.476562 16.6875 -51.84375 C 14.613281 -49.207031 13.050781 -46.257812 12 -43 C 10.945312 -39.75 10.421875 -36.453125 10.421875 -33.109375 C 10.421875 -29.453125 11.039062 -25.945312 12.28125 -22.59375 C 13.519531 -19.25 15.253906 -16.289062 17.484375 -13.71875 C 19.710938 -11.144531 22.332031 -9.097656 25.34375 -7.578125 C 28.351562 -6.054688 31.625 -5.296875 35.15625 -5.296875 C 37.632812 -5.296875 40.175781 -5.726562 42.78125 -6.59375 C 45.382812 -7.46875 47.816406 -8.800781 50.078125 -10.59375 C 52.335938 -12.394531 54.148438 -14.722656 55.515625 -17.578125 L 60.921875 -14.78125 C 59.554688 -11.5 57.445312 -8.707031 54.59375 -6.40625 C 51.738281 -4.113281 48.554688 -2.378906 45.046875 -1.203125 C 41.546875 -0.0234375 38.125 0.5625 34.78125 0.5625 C 30.257812 0.5625 26.101562 -0.410156 22.3125 -2.359375 C 18.53125 -4.316406 15.257812 -6.921875 12.5 -10.171875 C 9.75 -13.429688 7.628906 -17.09375 6.140625 -21.15625 C 4.648438 -25.21875 3.90625 -29.328125 3.90625 -33.484375 Z M 33.765625 16.734375 C 32.210938 16.734375 30.488281 16.515625 28.59375 16.078125 C 26.707031 15.648438 24.894531 15.003906 23.15625 14.140625 L 25.015625 10.515625 C 26.316406 11.128906 27.554688 11.625 28.734375 12 C 29.921875 12.375 31.253906 12.5625 32.734375 12.5625 C 34.785156 12.5625 36.367188 12.171875 37.484375 11.390625 C 38.597656 10.617188 39.15625 9.425781 39.15625 7.8125 C 39.15625 6.195312 38.597656 4.785156 37.484375 3.578125 C 36.367188 2.367188 34.753906 1.175781 32.640625 0 L 35.34375 -1.765625 C 37.757812 -0.273438 39.710938 1.253906 41.203125 2.828125 C 42.691406 4.410156 43.4375 6.410156 43.4375 8.828125 C 43.4375 11.316406 42.566406 13.253906 40.828125 14.640625 C 39.097656 16.035156 36.742188 16.734375 33.765625 16.734375 Z M 33.765625 16.734375 "/></g></g></g><g fill="#ffffff" fill-opacity="1"><g transform="translate(1053.513881, 283.55885)"><g><path d="M 28.734375 -66.03125 L 34.21875 -66.03125 L 61.65625 0 L 54.78125 0 L 46.21875 -20.640625 L 16.546875 -20.640625 L 8.09375 0 L 1.109375 0 Z M 44.734375 -25.765625 L 31.4375 -58.40625 L 17.953125 -25.765625 Z M 37.109375 -76.71875 C 35.242188 -76.71875 33.660156 -77.023438 32.359375 -77.640625 C 31.054688 -78.265625 29.878906 -78.882812 28.828125 -79.5 C 27.773438 -80.125 26.566406 -80.4375 25.203125 -80.4375 C 23.835938 -80.4375 22.828125 -80.109375 22.171875 -79.453125 C 21.523438 -78.804688 21.09375 -78.113281 20.875 -77.375 C 20.65625 -76.632812 20.546875 -76.171875 20.546875 -75.984375 L 16.640625 -75.984375 C 16.640625 -76.296875 16.75 -76.914062 16.96875 -77.84375 C 17.1875 -78.769531 17.601562 -79.742188 18.21875 -80.765625 C 18.84375 -81.785156 19.695312 -82.679688 20.78125 -83.453125 C 21.863281 -84.234375 23.304688 -84.625 25.109375 -84.625 C 26.847656 -84.625 28.320312 -84.296875 29.53125 -83.640625 C 30.738281 -82.992188 31.914062 -82.34375 33.0625 -81.6875 C 34.207031 -81.039062 35.523438 -80.71875 37.015625 -80.71875 C 38.617188 -80.71875 39.789062 -81.070312 40.53125 -81.78125 C 41.28125 -82.5 41.765625 -83.226562 41.984375 -83.96875 C 42.203125 -84.71875 42.3125 -85.15625 42.3125 -85.28125 L 46.21875 -85.28125 C 46.21875 -84.96875 46.09375 -84.363281 45.84375 -83.46875 C 45.59375 -82.570312 45.140625 -81.59375 44.484375 -80.53125 C 43.835938 -79.476562 42.910156 -78.578125 41.703125 -77.828125 C 40.492188 -77.085938 38.960938 -76.71875 37.109375 -76.71875 Z M 37.109375 -76.71875 "/></g></g></g><g fill="#ffffff" fill-opacity="1"><g transform="translate(1123.821936, 283.55885)"><g><path d="M 34.875 0.46875 C 30.226562 0.46875 26.007812 -0.457031 22.21875 -2.3125 C 18.4375 -4.175781 15.179688 -6.703125 12.453125 -9.890625 C 9.734375 -13.085938 7.628906 -16.6875 6.140625 -20.6875 C 4.648438 -24.6875 3.90625 -28.796875 3.90625 -33.015625 C 3.90625 -37.421875 4.679688 -41.617188 6.234375 -45.609375 C 7.785156 -49.609375 9.96875 -53.175781 12.78125 -56.3125 C 15.601562 -59.445312 18.90625 -61.925781 22.6875 -63.75 C 26.46875 -65.582031 30.5625 -66.5 34.96875 -66.5 C 39.613281 -66.5 43.828125 -65.535156 47.609375 -63.609375 C 51.390625 -61.691406 54.628906 -59.117188 57.328125 -55.890625 C 60.023438 -52.671875 62.117188 -49.078125 63.609375 -45.109375 C 65.097656 -41.140625 65.84375 -37.078125 65.84375 -32.921875 C 65.84375 -28.515625 65.066406 -24.3125 63.515625 -20.3125 C 61.960938 -16.320312 59.789062 -12.757812 57 -9.625 C 54.21875 -6.488281 50.9375 -4.019531 47.15625 -2.21875 C 43.375 -0.425781 39.28125 0.46875 34.875 0.46875 Z M 10.421875 -33.015625 C 10.421875 -29.421875 11.007812 -25.960938 12.1875 -22.640625 C 13.363281 -19.328125 15.035156 -16.382812 17.203125 -13.8125 C 19.367188 -11.238281 21.957031 -9.191406 24.96875 -7.671875 C 27.976562 -6.148438 31.28125 -5.390625 34.875 -5.390625 C 38.65625 -5.390625 42.046875 -6.179688 45.046875 -7.765625 C 48.054688 -9.347656 50.628906 -11.457031 52.765625 -14.09375 C 54.910156 -16.726562 56.539062 -19.6875 57.65625 -22.96875 C 58.769531 -26.257812 59.328125 -29.609375 59.328125 -33.015625 C 59.328125 -36.609375 58.738281 -40.046875 57.5625 -43.328125 C 56.382812 -46.617188 54.695312 -49.566406 52.5 -52.171875 C 50.300781 -54.773438 47.710938 -56.820312 44.734375 -58.3125 C 41.753906 -59.800781 38.46875 -60.546875 34.875 -60.546875 C 31.15625 -60.546875 27.789062 -59.769531 24.78125 -58.21875 C 21.78125 -56.664062 19.207031 -54.570312 17.0625 -51.9375 C 14.925781 -49.300781 13.285156 -46.335938 12.140625 -43.046875 C 10.992188 -39.765625 10.421875 -36.421875 10.421875 -33.015625 Z M 10.421875 -33.015625 "/></g></g></g><g fill="#ffffff" fill-opacity="1"><g transform="translate(1201.113219, 283.55885)"><g/></g></g><g fill="#ffffff" fill-opacity="1"><g transform="translate(1232.268234, 283.55885)"><g/></g></g><g fill="#ffffff" fill-opacity="1"><g transform="translate(1263.433504, 283.55885)"><g><path d="M 53.109375 0 L 20.1875 -34.6875 C 17.519531 -37.539062 15.378906 -39.972656 13.765625 -41.984375 C 12.148438 -44.003906 11 -45.832031 10.3125 -47.46875 C 9.632812 -49.113281 9.296875 -50.742188 9.296875 -52.359375 C 9.296875 -55.085938 10.023438 -57.535156 11.484375 -59.703125 C 12.941406 -61.878906 14.925781 -63.613281 17.4375 -64.90625 C 19.945312 -66.207031 22.753906 -66.859375 25.859375 -66.859375 C 28.765625 -66.859375 31.378906 -66.316406 33.703125 -65.234375 C 36.035156 -64.148438 37.882812 -62.628906 39.25 -60.671875 C 40.613281 -58.722656 41.296875 -56.445312 41.296875 -53.84375 C 41.296875 -51.050781 40.503906 -48.554688 38.921875 -46.359375 C 37.335938 -44.160156 35.289062 -42.113281 32.78125 -40.21875 C 30.269531 -38.332031 27.492188 -36.425781 24.453125 -34.5 C 21.910156 -32.769531 19.570312 -31.019531 17.4375 -29.25 C 15.300781 -27.476562 13.613281 -25.597656 12.375 -23.609375 C 11.132812 -21.628906 10.515625 -19.367188 10.515625 -16.828125 C 10.515625 -14.097656 11.285156 -11.785156 12.828125 -9.890625 C 14.378906 -8.003906 16.347656 -6.582031 18.734375 -5.625 C 21.117188 -4.664062 23.585938 -4.1875 26.140625 -4.1875 C 29.484375 -4.1875 32.566406 -4.941406 35.390625 -6.453125 C 38.210938 -7.972656 40.675781 -10.082031 42.78125 -12.78125 C 44.882812 -15.476562 46.507812 -18.5625 47.65625 -22.03125 C 48.8125 -25.507812 49.390625 -29.203125 49.390625 -33.109375 L 54.78125 -33.109375 C 54.78125 -28.398438 54.035156 -23.984375 52.546875 -19.859375 C 51.054688 -15.734375 48.992188 -12.117188 46.359375 -9.015625 C 43.722656 -5.921875 40.625 -3.488281 37.0625 -1.71875 C 33.5 0.0507812 29.640625 0.9375 25.484375 0.9375 C 21.640625 0.9375 18.101562 0.175781 14.875 -1.34375 C 11.65625 -2.863281 9.097656 -4.957031 7.203125 -7.625 C 5.316406 -10.289062 4.375 -13.421875 4.375 -17.015625 C 4.375 -20.367188 5.160156 -23.300781 6.734375 -25.8125 C 8.316406 -28.320312 10.363281 -30.582031 12.875 -32.59375 C 15.382812 -34.613281 18.035156 -36.519531 20.828125 -38.3125 C 23.679688 -40.175781 26.207031 -41.894531 28.40625 -43.46875 C 30.613281 -45.050781 32.335938 -46.664062 33.578125 -48.3125 C 34.816406 -49.957031 35.4375 -51.738281 35.4375 -53.65625 C 35.4375 -56.070312 34.535156 -58.054688 32.734375 -59.609375 C 30.929688 -61.160156 28.640625 -61.9375 25.859375 -61.9375 C 23.804688 -61.9375 21.972656 -61.5 20.359375 -60.625 C 18.753906 -59.757812 17.484375 -58.613281 16.546875 -57.1875 C 15.617188 -55.769531 15.15625 -54.222656 15.15625 -52.546875 C 15.15625 -51.492188 15.398438 -50.390625 15.890625 -49.234375 C 16.390625 -48.085938 17.351562 -46.660156 18.78125 -44.953125 C 20.207031 -43.253906 22.253906 -41.007812 24.921875 -38.21875 L 61.46875 0 Z M 53.109375 0 "/></g></g></g><g fill="#ffffff" fill-opacity="1"><g transform="translate(1332.904537, 283.55885)"><g/></g></g><g fill="#ffffff" fill-opacity="1"><g transform="translate(1364.059553, 283.55885)"><g><path d="M 8.28125 0 L 8.28125 -66.03125 L 14.78125 -66.03125 L 14.78125 0 Z M 8.28125 0 "/></g></g></g><g fill="#ffffff" fill-opacity="1"><g transform="translate(1394.56356, 283.55885)"><g><path d="M 28.734375 -66.03125 L 34.21875 -66.03125 L 61.65625 0 L 54.78125 0 L 46.21875 -20.640625 L 16.546875 -20.640625 L 8.09375 0 L 1.109375 0 Z M 44.734375 -25.765625 L 31.4375 -58.40625 L 17.953125 -25.765625 Z M 44.734375 -25.765625 "/></g></g></g><g clip-path="url(#524534bf1c)"><g clip-path="url(#0fe6a832ca)"><path fill="#e7191f" d="M 907.210938 271.28125 L 910.203125 271.28125 L 910.203125 274.269531 L 907.210938 274.269531 Z M 907.210938 271.28125 " fill-opacity="1" fill-rule="nonzero"/></g></g><g clip-path="url(#8f3543b98c)"><g clip-path="url(#87da2bb895)"><path fill="#e7191f" d="M 910.230469 0.0117188 L 913.21875 0.0117188 L 913.21875 3.003906 L 910.230469 3.003906 Z M 910.230469 0.0117188 " fill-opacity="1" fill-rule="nonzero"/></g></g></svg>