<svg xmlns="http://www.w3.org/2000/svg" xmlns:xlink="http://www.w3.org/1999/xlink" width="500" zoomAndPan="magnify" viewBox="0 0 375 374.999991" height="500" preserveAspectRatio="xMidYMid meet" version="1.0"><defs><g/></defs><g fill="#2baf29" fill-opacity="1"><g transform="translate(9.899567, 215.411553)"><g><path d="M 17.015625 -5 C 17.015625 -4.03125 16.769531 -3.164062 16.28125 -2.40625 C 15.789062 -1.65625 15.128906 -1.066406 14.296875 -0.640625 C 13.472656 -0.210938 12.566406 0 11.578125 0 L 2.4375 0 L 2.4375 -19.390625 L 11.765625 -19.390625 C 12.679688 -19.390625 13.46875 -19.144531 14.125 -18.65625 C 14.789062 -18.175781 15.300781 -17.554688 15.65625 -16.796875 C 16.019531 -16.046875 16.203125 -15.265625 16.203125 -14.453125 C 16.203125 -13.484375 15.953125 -12.585938 15.453125 -11.765625 C 14.960938 -10.953125 14.28125 -10.34375 13.40625 -9.9375 C 14.519531 -9.613281 15.398438 -9.003906 16.046875 -8.109375 C 16.691406 -7.222656 17.015625 -6.1875 17.015625 -5 Z M 15.109375 -5.328125 C 15.109375 -5.984375 14.960938 -6.585938 14.671875 -7.140625 C 14.378906 -7.691406 13.984375 -8.140625 13.484375 -8.484375 C 12.984375 -8.835938 12.410156 -9.015625 11.765625 -9.015625 L 4.34375 -9.015625 L 4.34375 -1.671875 L 11.578125 -1.671875 C 12.234375 -1.671875 12.820312 -1.84375 13.34375 -2.1875 C 13.875 -2.53125 14.300781 -2.976562 14.625 -3.53125 C 14.945312 -4.09375 15.109375 -4.691406 15.109375 -5.328125 Z M 4.34375 -17.71875 L 4.34375 -10.5625 L 11 -10.5625 C 11.644531 -10.5625 12.210938 -10.726562 12.703125 -11.0625 C 13.191406 -11.40625 13.582031 -11.847656 13.875 -12.390625 C 14.164062 -12.941406 14.3125 -13.523438 14.3125 -14.140625 C 14.3125 -14.796875 14.175781 -15.394531 13.90625 -15.9375 C 13.632812 -16.476562 13.257812 -16.910156 12.78125 -17.234375 C 12.3125 -17.554688 11.773438 -17.71875 11.171875 -17.71875 Z M 4.34375 -17.71875 "/></g></g></g><g fill="#2baf29" fill-opacity="1"><g transform="translate(27.679122, 215.411553)"><g><path d="M 2.328125 -19.390625 L 8.65625 -10.953125 L 14.96875 -19.390625 L 17.125 -19.390625 L 9.703125 -9.5625 L 16.90625 0 L 14.75 0 L 8.65625 -8.171875 L 2.546875 0 L 0.359375 0 L 7.5625 -9.5625 L 0.140625 -19.390625 Z M 2.328125 -19.390625 "/></g></g></g><g fill="#2baf29" fill-opacity="1"><g transform="translate(44.63935, 215.411553)"><g/></g></g><g fill="#2baf29" fill-opacity="1"><g transform="translate(50.811635, 215.411553)"><g><path d="M 16.203125 -17.703125 L 9.28125 -17.703125 L 9.28125 0 L 7.375 0 L 7.375 -17.703125 L 0.46875 -17.703125 L 0.46875 -19.390625 L 16.203125 -19.390625 Z M 16.203125 -17.703125 "/></g></g></g><g fill="#2baf29" fill-opacity="1"><g transform="translate(67.471455, 215.411553)"><g><path d="M 15.453125 -1.6875 L 15.453125 0 L 2.4375 0 L 2.4375 -19.390625 L 15.21875 -19.390625 L 15.21875 -17.703125 L 4.34375 -17.703125 L 4.34375 -10.703125 L 13.8125 -10.703125 L 13.8125 -9.09375 L 4.34375 -9.09375 L 4.34375 -1.6875 Z M 15.453125 -1.6875 "/></g></g></g><g fill="#2baf29" fill-opacity="1"><g transform="translate(83.721587, 215.411553)"><g><path d="M 1.140625 -9.828125 C 1.140625 -11.015625 1.34375 -12.175781 1.75 -13.3125 C 2.164062 -14.445312 2.765625 -15.484375 3.546875 -16.421875 C 4.328125 -17.359375 5.289062 -18.101562 6.4375 -18.65625 C 7.59375 -19.21875 8.894531 -19.5 10.34375 -19.5 C 12.082031 -19.5 13.566406 -19.101562 14.796875 -18.3125 C 16.023438 -17.519531 16.925781 -16.503906 17.5 -15.265625 L 16 -14.34375 C 15.582031 -15.195312 15.054688 -15.875 14.421875 -16.375 C 13.785156 -16.875 13.109375 -17.234375 12.390625 -17.453125 C 11.671875 -17.671875 10.957031 -17.78125 10.25 -17.78125 C 9.082031 -17.78125 8.050781 -17.546875 7.15625 -17.078125 C 6.257812 -16.617188 5.503906 -16 4.890625 -15.21875 C 4.285156 -14.445312 3.828125 -13.582031 3.515625 -12.625 C 3.210938 -11.675781 3.0625 -10.707031 3.0625 -9.71875 C 3.0625 -8.644531 3.242188 -7.613281 3.609375 -6.625 C 3.972656 -5.644531 4.484375 -4.773438 5.140625 -4.015625 C 5.796875 -3.265625 6.5625 -2.664062 7.4375 -2.21875 C 8.320312 -1.78125 9.285156 -1.5625 10.328125 -1.5625 C 11.054688 -1.5625 11.800781 -1.6875 12.5625 -1.9375 C 13.320312 -2.195312 14.035156 -2.585938 14.703125 -3.109375 C 15.367188 -3.640625 15.90625 -4.320312 16.3125 -5.15625 L 17.890625 -4.34375 C 17.484375 -3.375 16.863281 -2.550781 16.03125 -1.875 C 15.195312 -1.207031 14.265625 -0.703125 13.234375 -0.359375 C 12.203125 -0.015625 11.195312 0.15625 10.21875 0.15625 C 8.882812 0.15625 7.660156 -0.128906 6.546875 -0.703125 C 5.441406 -1.273438 4.484375 -2.035156 3.671875 -2.984375 C 2.859375 -3.941406 2.234375 -5.015625 1.796875 -6.203125 C 1.359375 -7.398438 1.140625 -8.609375 1.140625 -9.828125 Z M 1.140625 -9.828125 "/></g></g></g><g fill="#2baf29" fill-opacity="1"><g transform="translate(102.457053, 215.411553)"><g><path d="M 17.71875 -19.390625 L 17.71875 0 L 15.84375 0 L 15.84375 -9.0625 L 4.34375 -9.0625 L 4.34375 0 L 2.4375 0 L 2.4375 -19.390625 L 4.34375 -19.390625 L 4.34375 -10.765625 L 15.84375 -10.765625 L 15.84375 -19.390625 Z M 17.71875 -19.390625 "/></g></g></g><g fill="#2baf29" fill-opacity="1"><g transform="translate(122.616572, 215.411553)"><g/></g></g><g fill="#2baf29" fill-opacity="1"><g transform="translate(129.580921, 215.411553)"><g/></g></g><g fill="#2baf29" fill-opacity="1"><g transform="translate(136.548863, 215.411553)"><g><path d="M 2.34375 3.546875 L 2.34375 -21.171875 L 3.953125 -21.171875 L 3.953125 3.546875 Z M 2.34375 3.546875 "/></g></g></g><g fill="#2baf29" fill-opacity="1"><g transform="translate(142.858539, 215.411553)"><g/></g></g><g fill="#fafefa" fill-opacity="1"><g transform="translate(149.824684, 215.411553)"><g/></g></g><g fill="#fafefa" fill-opacity="1"><g transform="translate(155.944475, 215.411553)"><g><path d="M 8.4375 -19.390625 L 10.046875 -19.390625 L 18.109375 0 L 16.09375 0 L 13.578125 -6.0625 L 4.859375 -6.0625 L 2.375 0 L 0.328125 0 Z M 13.140625 -7.5625 L 9.234375 -17.15625 L 5.265625 -7.5625 Z M 13.140625 -7.5625 "/></g></g></g><g fill="#fafefa" fill-opacity="1"><g transform="translate(174.10639, 215.411553)"><g><path d="M 1.90625 -5.875 L 1.90625 -14.234375 L 3.765625 -14.234375 L 3.765625 -6.203125 C 3.765625 -4.578125 4.039062 -3.363281 4.59375 -2.5625 C 5.15625 -1.757812 5.984375 -1.359375 7.078125 -1.359375 C 7.804688 -1.359375 8.507812 -1.519531 9.1875 -1.84375 C 9.875 -2.164062 10.476562 -2.617188 11 -3.203125 C 11.53125 -3.796875 11.929688 -4.484375 12.203125 -5.265625 L 12.203125 -14.234375 L 14.0625 -14.234375 L 14.0625 -2.234375 C 14.0625 -1.984375 14.113281 -1.796875 14.21875 -1.671875 C 14.332031 -1.554688 14.5 -1.488281 14.71875 -1.46875 L 14.71875 0 C 14.5 0.0195312 14.328125 0.03125 14.203125 0.03125 C 14.078125 0.0390625 13.957031 0.046875 13.84375 0.046875 C 13.476562 0.015625 13.164062 -0.125 12.90625 -0.375 C 12.644531 -0.632812 12.503906 -0.945312 12.484375 -1.3125 L 12.421875 -3.21875 C 11.804688 -2.125 10.960938 -1.269531 9.890625 -0.65625 C 8.828125 -0.0390625 7.679688 0.265625 6.453125 0.265625 C 4.953125 0.265625 3.816406 -0.25 3.046875 -1.28125 C 2.285156 -2.320312 1.90625 -3.851562 1.90625 -5.875 Z M 1.90625 -5.875 "/></g></g></g><g fill="#fafefa" fill-opacity="1"><g transform="translate(190.329231, 215.411553)"><g><path d="M 8.875 -0.6875 C 8.726562 -0.625 8.5 -0.519531 8.1875 -0.375 C 7.882812 -0.226562 7.515625 -0.101562 7.078125 0 C 6.640625 0.101562 6.164062 0.15625 5.65625 0.15625 C 5.125 0.15625 4.625 0.0546875 4.15625 -0.140625 C 3.695312 -0.335938 3.332031 -0.640625 3.0625 -1.046875 C 2.789062 -1.460938 2.65625 -1.96875 2.65625 -2.5625 L 2.65625 -12.75 L 0.6875 -12.75 L 0.6875 -14.234375 L 2.65625 -14.234375 L 2.65625 -19.03125 L 4.5 -19.03125 L 4.5 -14.234375 L 7.78125 -14.234375 L 7.78125 -12.75 L 4.5 -12.75 L 4.5 -3.09375 C 4.539062 -2.582031 4.726562 -2.195312 5.0625 -1.9375 C 5.40625 -1.6875 5.796875 -1.5625 6.234375 -1.5625 C 6.734375 -1.5625 7.191406 -1.644531 7.609375 -1.8125 C 8.035156 -1.988281 8.296875 -2.113281 8.390625 -2.1875 Z M 8.875 -0.6875 "/></g></g></g><g fill="#fafefa" fill-opacity="1"><g transform="translate(199.23266, 215.411553)"><g><path d="M 8.109375 0.265625 C 7.085938 0.265625 6.144531 0.0703125 5.28125 -0.3125 C 4.414062 -0.707031 3.671875 -1.242188 3.046875 -1.921875 C 2.421875 -2.609375 1.929688 -3.390625 1.578125 -4.265625 C 1.234375 -5.148438 1.0625 -6.085938 1.0625 -7.078125 C 1.0625 -8.097656 1.234375 -9.046875 1.578125 -9.921875 C 1.929688 -10.804688 2.425781 -11.585938 3.0625 -12.265625 C 3.695312 -12.953125 4.445312 -13.488281 5.3125 -13.875 C 6.175781 -14.269531 7.117188 -14.46875 8.140625 -14.46875 C 9.160156 -14.46875 10.097656 -14.269531 10.953125 -13.875 C 11.804688 -13.488281 12.550781 -12.953125 13.1875 -12.265625 C 13.820312 -11.585938 14.3125 -10.804688 14.65625 -9.921875 C 15.007812 -9.046875 15.1875 -8.097656 15.1875 -7.078125 C 15.1875 -6.085938 15.007812 -5.148438 14.65625 -4.265625 C 14.3125 -3.390625 13.828125 -2.609375 13.203125 -1.921875 C 12.578125 -1.242188 11.832031 -0.707031 10.96875 -0.3125 C 10.101562 0.0703125 9.148438 0.265625 8.109375 0.265625 Z M 2.953125 -7.046875 C 2.953125 -5.992188 3.179688 -5.035156 3.640625 -4.171875 C 4.109375 -3.304688 4.734375 -2.617188 5.515625 -2.109375 C 6.296875 -1.609375 7.160156 -1.359375 8.109375 -1.359375 C 9.054688 -1.359375 9.921875 -1.613281 10.703125 -2.125 C 11.484375 -2.632812 12.109375 -3.332031 12.578125 -4.21875 C 13.054688 -5.101562 13.296875 -6.0625 13.296875 -7.09375 C 13.296875 -8.15625 13.054688 -9.125 12.578125 -10 C 12.109375 -10.875 11.484375 -11.566406 10.703125 -12.078125 C 9.921875 -12.585938 9.054688 -12.84375 8.109375 -12.84375 C 7.160156 -12.84375 6.300781 -12.578125 5.53125 -12.046875 C 4.757812 -11.515625 4.132812 -10.816406 3.65625 -9.953125 C 3.1875 -9.085938 2.953125 -8.117188 2.953125 -7.046875 Z M 2.953125 -7.046875 "/></g></g></g><g fill="#fafefa" fill-opacity="1"><g transform="translate(215.482807, 215.411553)"><g><path d="M 23.21875 0 L 21.359375 0 L 21.359375 -7.953125 C 21.359375 -9.609375 21.09375 -10.828125 20.5625 -11.609375 C 20.039062 -12.390625 19.257812 -12.78125 18.21875 -12.78125 C 17.144531 -12.78125 16.179688 -12.394531 15.328125 -11.625 C 14.484375 -10.863281 13.890625 -9.882812 13.546875 -8.6875 L 13.546875 0 L 11.6875 0 L 11.6875 -7.953125 C 11.6875 -9.617188 11.429688 -10.835938 10.921875 -11.609375 C 10.410156 -12.390625 9.628906 -12.78125 8.578125 -12.78125 C 7.515625 -12.78125 6.554688 -12.40625 5.703125 -11.65625 C 4.847656 -10.914062 4.25 -9.9375 3.90625 -8.71875 L 3.90625 0 L 2.046875 0 L 2.046875 -14.234375 L 3.734375 -14.234375 L 3.734375 -11 C 4.335938 -12.113281 5.109375 -12.96875 6.046875 -13.5625 C 6.984375 -14.164062 8.023438 -14.46875 9.171875 -14.46875 C 10.359375 -14.46875 11.316406 -14.128906 12.046875 -13.453125 C 12.773438 -12.785156 13.222656 -11.90625 13.390625 -10.8125 C 14.035156 -12.019531 14.816406 -12.929688 15.734375 -13.546875 C 16.660156 -14.160156 17.707031 -14.46875 18.875 -14.46875 C 19.675781 -14.46875 20.351562 -14.320312 20.90625 -14.03125 C 21.457031 -13.75 21.898438 -13.335938 22.234375 -12.796875 C 22.578125 -12.253906 22.828125 -11.601562 22.984375 -10.84375 C 23.140625 -10.09375 23.21875 -9.253906 23.21875 -8.328125 Z M 23.21875 0 "/></g></g></g><g fill="#fafefa" fill-opacity="1"><g transform="translate(240.58178, 215.411553)"><g><path d="M 0.90625 -4.09375 C 0.90625 -4.988281 1.160156 -5.757812 1.671875 -6.40625 C 2.179688 -7.050781 2.882812 -7.550781 3.78125 -7.90625 C 4.6875 -8.257812 5.726562 -8.4375 6.90625 -8.4375 C 7.601562 -8.4375 8.320312 -8.378906 9.0625 -8.265625 C 9.8125 -8.160156 10.476562 -8 11.0625 -7.78125 L 11.0625 -8.984375 C 11.0625 -10.179688 10.707031 -11.132812 10 -11.84375 C 9.289062 -12.5625 8.304688 -12.921875 7.046875 -12.921875 C 6.285156 -12.921875 5.535156 -12.78125 4.796875 -12.5 C 4.054688 -12.21875 3.285156 -11.800781 2.484375 -11.25 L 1.78125 -12.5625 C 2.707031 -13.195312 3.613281 -13.671875 4.5 -13.984375 C 5.394531 -14.304688 6.304688 -14.46875 7.234375 -14.46875 C 8.984375 -14.46875 10.367188 -13.96875 11.390625 -12.96875 C 12.410156 -11.96875 12.921875 -10.585938 12.921875 -8.828125 L 12.921875 -2.234375 C 12.921875 -1.984375 12.972656 -1.796875 13.078125 -1.671875 C 13.191406 -1.554688 13.367188 -1.488281 13.609375 -1.46875 L 13.609375 0 C 13.398438 0.0195312 13.222656 0.0351562 13.078125 0.046875 C 12.929688 0.0664062 12.820312 0.0664062 12.75 0.046875 C 12.300781 0.0351562 11.957031 -0.101562 11.71875 -0.375 C 11.476562 -0.65625 11.347656 -0.945312 11.328125 -1.25 L 11.3125 -2.296875 C 10.664062 -1.472656 9.832031 -0.835938 8.8125 -0.390625 C 7.800781 0.046875 6.765625 0.265625 5.703125 0.265625 C 4.796875 0.265625 3.972656 0.0703125 3.234375 -0.3125 C 2.492188 -0.707031 1.921875 -1.234375 1.515625 -1.890625 C 1.109375 -2.554688 0.90625 -3.289062 0.90625 -4.09375 Z M 10.4375 -3 C 10.632812 -3.257812 10.785156 -3.503906 10.890625 -3.734375 C 11.003906 -3.972656 11.0625 -4.1875 11.0625 -4.375 L 11.0625 -6.453125 C 10.445312 -6.679688 9.804688 -6.859375 9.140625 -6.984375 C 8.472656 -7.117188 7.800781 -7.1875 7.125 -7.1875 C 5.800781 -7.1875 4.726562 -6.921875 3.90625 -6.390625 C 3.082031 -5.859375 2.671875 -5.140625 2.671875 -4.234375 C 2.671875 -3.703125 2.804688 -3.203125 3.078125 -2.734375 C 3.359375 -2.273438 3.757812 -1.894531 4.28125 -1.59375 C 4.8125 -1.289062 5.429688 -1.140625 6.140625 -1.140625 C 7.035156 -1.140625 7.867188 -1.3125 8.640625 -1.65625 C 9.421875 -2.007812 10.019531 -2.457031 10.4375 -3 Z M 10.4375 -3 "/></g></g></g><g fill="#fafefa" fill-opacity="1"><g transform="translate(255.466378, 215.411553)"><g><path d="M 8.21875 0.265625 C 7.1875 0.265625 6.234375 0.0703125 5.359375 -0.3125 C 4.492188 -0.707031 3.738281 -1.25 3.09375 -1.9375 C 2.445312 -2.632812 1.945312 -3.425781 1.59375 -4.3125 C 1.238281 -5.207031 1.0625 -6.15625 1.0625 -7.15625 C 1.0625 -8.5 1.363281 -9.726562 1.96875 -10.84375 C 2.570312 -11.957031 3.410156 -12.835938 4.484375 -13.484375 C 5.554688 -14.140625 6.789062 -14.46875 8.1875 -14.46875 C 9.519531 -14.46875 10.695312 -14.160156 11.71875 -13.546875 C 12.738281 -12.941406 13.492188 -12.125 13.984375 -11.09375 L 12.1875 -10.515625 C 11.78125 -11.242188 11.21875 -11.8125 10.5 -12.21875 C 9.78125 -12.632812 8.984375 -12.84375 8.109375 -12.84375 C 7.160156 -12.84375 6.296875 -12.59375 5.515625 -12.09375 C 4.734375 -11.601562 4.109375 -10.929688 3.640625 -10.078125 C 3.179688 -9.222656 2.953125 -8.25 2.953125 -7.15625 C 2.953125 -6.082031 3.1875 -5.109375 3.65625 -4.234375 C 4.132812 -3.359375 4.765625 -2.660156 5.546875 -2.140625 C 6.328125 -1.617188 7.191406 -1.359375 8.140625 -1.359375 C 8.753906 -1.359375 9.347656 -1.46875 9.921875 -1.6875 C 10.492188 -1.90625 10.992188 -2.203125 11.421875 -2.578125 C 11.859375 -2.953125 12.148438 -3.359375 12.296875 -3.796875 L 14.125 -3.25 C 13.863281 -2.570312 13.4375 -1.960938 12.84375 -1.421875 C 12.257812 -0.890625 11.570312 -0.472656 10.78125 -0.171875 C 9.988281 0.117188 9.132812 0.265625 8.21875 0.265625 Z M 7.890625 4.921875 C 7.441406 4.921875 6.9375 4.851562 6.375 4.71875 C 5.820312 4.59375 5.289062 4.40625 4.78125 4.15625 L 5.328125 3.09375 C 5.710938 3.269531 6.078125 3.410156 6.421875 3.515625 C 6.765625 3.628906 7.15625 3.6875 7.59375 3.6875 C 8.195312 3.6875 8.660156 3.570312 8.984375 3.34375 C 9.316406 3.113281 9.484375 2.765625 9.484375 2.296875 C 9.484375 1.816406 9.316406 1.398438 8.984375 1.046875 C 8.660156 0.691406 8.1875 0.34375 7.5625 0 L 8.359375 -0.515625 C 9.066406 -0.078125 9.640625 0.367188 10.078125 0.828125 C 10.515625 1.296875 10.734375 1.882812 10.734375 2.59375 C 10.734375 3.320312 10.476562 3.890625 9.96875 4.296875 C 9.457031 4.710938 8.765625 4.921875 7.890625 4.921875 Z M 7.890625 4.921875 "/></g></g></g><g fill="#fafefa" fill-opacity="1"><g transform="translate(270.460214, 215.411553)"><g><path d="M 0.90625 -4.09375 C 0.90625 -4.988281 1.160156 -5.757812 1.671875 -6.40625 C 2.179688 -7.050781 2.882812 -7.550781 3.78125 -7.90625 C 4.6875 -8.257812 5.726562 -8.4375 6.90625 -8.4375 C 7.601562 -8.4375 8.320312 -8.378906 9.0625 -8.265625 C 9.8125 -8.160156 10.476562 -8 11.0625 -7.78125 L 11.0625 -8.984375 C 11.0625 -10.179688 10.707031 -11.132812 10 -11.84375 C 9.289062 -12.5625 8.304688 -12.921875 7.046875 -12.921875 C 6.285156 -12.921875 5.535156 -12.78125 4.796875 -12.5 C 4.054688 -12.21875 3.285156 -11.800781 2.484375 -11.25 L 1.78125 -12.5625 C 2.707031 -13.195312 3.613281 -13.671875 4.5 -13.984375 C 5.394531 -14.304688 6.304688 -14.46875 7.234375 -14.46875 C 8.984375 -14.46875 10.367188 -13.96875 11.390625 -12.96875 C 12.410156 -11.96875 12.921875 -10.585938 12.921875 -8.828125 L 12.921875 -2.234375 C 12.921875 -1.984375 12.972656 -1.796875 13.078125 -1.671875 C 13.191406 -1.554688 13.367188 -1.488281 13.609375 -1.46875 L 13.609375 0 C 13.398438 0.0195312 13.222656 0.0351562 13.078125 0.046875 C 12.929688 0.0664062 12.820312 0.0664062 12.75 0.046875 C 12.300781 0.0351562 11.957031 -0.101562 11.71875 -0.375 C 11.476562 -0.65625 11.347656 -0.945312 11.328125 -1.25 L 11.3125 -2.296875 C 10.664062 -1.472656 9.832031 -0.835938 8.8125 -0.390625 C 7.800781 0.046875 6.765625 0.265625 5.703125 0.265625 C 4.796875 0.265625 3.972656 0.0703125 3.234375 -0.3125 C 2.492188 -0.707031 1.921875 -1.234375 1.515625 -1.890625 C 1.109375 -2.554688 0.90625 -3.289062 0.90625 -4.09375 Z M 10.4375 -3 C 10.632812 -3.257812 10.785156 -3.503906 10.890625 -3.734375 C 11.003906 -3.972656 11.0625 -4.1875 11.0625 -4.375 L 11.0625 -6.453125 C 10.445312 -6.679688 9.804688 -6.859375 9.140625 -6.984375 C 8.472656 -7.117188 7.800781 -7.1875 7.125 -7.1875 C 5.800781 -7.1875 4.726562 -6.921875 3.90625 -6.390625 C 3.082031 -5.859375 2.671875 -5.140625 2.671875 -4.234375 C 2.671875 -3.703125 2.804688 -3.203125 3.078125 -2.734375 C 3.359375 -2.273438 3.757812 -1.894531 4.28125 -1.59375 C 4.8125 -1.289062 5.429688 -1.140625 6.140625 -1.140625 C 7.035156 -1.140625 7.867188 -1.3125 8.640625 -1.65625 C 9.421875 -2.007812 10.019531 -2.457031 10.4375 -3 Z M 8.84375 -17.421875 C 8.300781 -17.421875 7.835938 -17.507812 7.453125 -17.6875 C 7.066406 -17.875 6.71875 -18.054688 6.40625 -18.234375 C 6.101562 -18.421875 5.75 -18.515625 5.34375 -18.515625 C 4.945312 -18.515625 4.648438 -18.414062 4.453125 -18.21875 C 4.265625 -18.03125 4.140625 -17.828125 4.078125 -17.609375 C 4.015625 -17.390625 3.984375 -17.253906 3.984375 -17.203125 L 2.828125 -17.203125 C 2.828125 -17.296875 2.859375 -17.476562 2.921875 -17.75 C 2.992188 -18.019531 3.117188 -18.304688 3.296875 -18.609375 C 3.484375 -18.910156 3.734375 -19.175781 4.046875 -19.40625 C 4.367188 -19.632812 4.789062 -19.75 5.3125 -19.75 C 5.820312 -19.75 6.253906 -19.648438 6.609375 -19.453125 C 6.972656 -19.265625 7.320312 -19.070312 7.65625 -18.875 C 7.988281 -18.6875 8.375 -18.59375 8.8125 -18.59375 C 9.289062 -18.59375 9.640625 -18.695312 9.859375 -18.90625 C 10.078125 -19.125 10.21875 -19.34375 10.28125 -19.5625 C 10.34375 -19.78125 10.375 -19.90625 10.375 -19.9375 L 11.515625 -19.9375 C 11.515625 -19.84375 11.476562 -19.664062 11.40625 -19.40625 C 11.332031 -19.144531 11.203125 -18.859375 11.015625 -18.546875 C 10.828125 -18.234375 10.550781 -17.96875 10.1875 -17.75 C 9.832031 -17.53125 9.382812 -17.421875 8.84375 -17.421875 Z M 8.84375 -17.421875 "/></g></g></g><g fill="#fafefa" fill-opacity="1"><g transform="translate(285.344801, 215.411553)"><g><path d="M 8.109375 0.265625 C 7.085938 0.265625 6.144531 0.0703125 5.28125 -0.3125 C 4.414062 -0.707031 3.671875 -1.242188 3.046875 -1.921875 C 2.421875 -2.609375 1.929688 -3.390625 1.578125 -4.265625 C 1.234375 -5.148438 1.0625 -6.085938 1.0625 -7.078125 C 1.0625 -8.097656 1.234375 -9.046875 1.578125 -9.921875 C 1.929688 -10.804688 2.425781 -11.585938 3.0625 -12.265625 C 3.695312 -12.953125 4.445312 -13.488281 5.3125 -13.875 C 6.175781 -14.269531 7.117188 -14.46875 8.140625 -14.46875 C 9.160156 -14.46875 10.097656 -14.269531 10.953125 -13.875 C 11.804688 -13.488281 12.550781 -12.953125 13.1875 -12.265625 C 13.820312 -11.585938 14.3125 -10.804688 14.65625 -9.921875 C 15.007812 -9.046875 15.1875 -8.097656 15.1875 -7.078125 C 15.1875 -6.085938 15.007812 -5.148438 14.65625 -4.265625 C 14.3125 -3.390625 13.828125 -2.609375 13.203125 -1.921875 C 12.578125 -1.242188 11.832031 -0.707031 10.96875 -0.3125 C 10.101562 0.0703125 9.148438 0.265625 8.109375 0.265625 Z M 2.953125 -7.046875 C 2.953125 -5.992188 3.179688 -5.035156 3.640625 -4.171875 C 4.109375 -3.304688 4.734375 -2.617188 5.515625 -2.109375 C 6.296875 -1.609375 7.160156 -1.359375 8.109375 -1.359375 C 9.054688 -1.359375 9.921875 -1.613281 10.703125 -2.125 C 11.484375 -2.632812 12.109375 -3.332031 12.578125 -4.21875 C 13.054688 -5.101562 13.296875 -6.0625 13.296875 -7.09375 C 13.296875 -8.15625 13.054688 -9.125 12.578125 -10 C 12.109375 -10.875 11.484375 -11.566406 10.703125 -12.078125 C 9.921875 -12.585938 9.054688 -12.84375 8.109375 -12.84375 C 7.160156 -12.84375 6.300781 -12.578125 5.53125 -12.046875 C 4.757812 -11.515625 4.132812 -10.816406 3.65625 -9.953125 C 3.1875 -9.085938 2.953125 -8.117188 2.953125 -7.046875 Z M 2.953125 -7.046875 "/></g></g></g><g fill="#fafefa" fill-opacity="1"><g transform="translate(301.594943, 215.411553)"><g/></g></g><g fill="#fafefa" fill-opacity="1"><g transform="translate(308.559287, 215.411553)"><g><path d="M 15.59375 0 L 5.921875 -10.1875 C 5.140625 -11.019531 4.507812 -11.734375 4.03125 -12.328125 C 3.5625 -12.921875 3.226562 -13.457031 3.03125 -13.9375 C 2.832031 -14.425781 2.734375 -14.90625 2.734375 -15.375 C 2.734375 -16.175781 2.945312 -16.894531 3.375 -17.53125 C 3.800781 -18.164062 4.382812 -18.675781 5.125 -19.0625 C 5.863281 -19.445312 6.6875 -19.640625 7.59375 -19.640625 C 8.445312 -19.640625 9.210938 -19.476562 9.890625 -19.15625 C 10.578125 -18.84375 11.117188 -18.398438 11.515625 -17.828125 C 11.921875 -17.253906 12.125 -16.582031 12.125 -15.8125 C 12.125 -14.988281 11.890625 -14.253906 11.421875 -13.609375 C 10.960938 -12.960938 10.363281 -12.363281 9.625 -11.8125 C 8.882812 -11.257812 8.070312 -10.703125 7.1875 -10.140625 C 6.4375 -9.628906 5.742188 -9.113281 5.109375 -8.59375 C 4.484375 -8.070312 3.988281 -7.519531 3.625 -6.9375 C 3.269531 -6.351562 3.09375 -5.6875 3.09375 -4.9375 C 3.09375 -4.132812 3.316406 -3.457031 3.765625 -2.90625 C 4.222656 -2.351562 4.800781 -1.9375 5.5 -1.65625 C 6.207031 -1.375 6.929688 -1.234375 7.671875 -1.234375 C 8.660156 -1.234375 9.566406 -1.453125 10.390625 -1.890625 C 11.222656 -2.335938 11.945312 -2.957031 12.5625 -3.75 C 13.1875 -4.539062 13.664062 -5.445312 14 -6.46875 C 14.332031 -7.488281 14.5 -8.570312 14.5 -9.71875 L 16.09375 -9.71875 C 16.09375 -8.332031 15.875 -7.035156 15.4375 -5.828125 C 15 -4.617188 14.390625 -3.554688 13.609375 -2.640625 C 12.835938 -1.734375 11.925781 -1.019531 10.875 -0.5 C 9.832031 0.0078125 8.703125 0.265625 7.484375 0.265625 C 6.359375 0.265625 5.320312 0.046875 4.375 -0.390625 C 3.425781 -0.835938 2.671875 -1.453125 2.109375 -2.234375 C 1.554688 -3.023438 1.28125 -3.945312 1.28125 -5 C 1.28125 -5.976562 1.507812 -6.835938 1.96875 -7.578125 C 2.4375 -8.316406 3.039062 -8.976562 3.78125 -9.5625 C 4.519531 -10.15625 5.300781 -10.71875 6.125 -11.25 C 6.957031 -11.800781 7.695312 -12.304688 8.34375 -12.765625 C 8.988281 -13.234375 9.492188 -13.707031 9.859375 -14.1875 C 10.222656 -14.664062 10.40625 -15.191406 10.40625 -15.765625 C 10.40625 -16.472656 10.140625 -17.050781 9.609375 -17.5 C 9.085938 -17.957031 8.414062 -18.1875 7.59375 -18.1875 C 6.988281 -18.1875 6.445312 -18.054688 5.96875 -17.796875 C 5.5 -17.546875 5.128906 -17.210938 4.859375 -16.796875 C 4.585938 -16.378906 4.453125 -15.925781 4.453125 -15.4375 C 4.453125 -15.125 4.523438 -14.796875 4.671875 -14.453125 C 4.816406 -14.117188 5.097656 -13.703125 5.515625 -13.203125 C 5.929688 -12.703125 6.53125 -12.039062 7.3125 -11.21875 L 18.046875 0 Z M 15.59375 0 "/></g></g></g><g fill="#fafefa" fill-opacity="1"><g transform="translate(326.775842, 215.411553)"><g/></g></g><g fill="#fafefa" fill-opacity="1"><g transform="translate(333.740186, 215.411553)"><g><path d="M 2.4375 0 L 2.4375 -19.390625 L 4.34375 -19.390625 L 4.34375 0 Z M 2.4375 0 "/></g></g></g><g fill="#fafefa" fill-opacity="1"><g transform="translate(340.513371, 215.411553)"><g><path d="M 8.4375 -19.390625 L 10.046875 -19.390625 L 18.109375 0 L 16.09375 0 L 13.578125 -6.0625 L 4.859375 -6.0625 L 2.375 0 L 0.328125 0 Z M 13.140625 -7.5625 L 9.234375 -17.15625 L 5.265625 -7.5625 Z M 13.140625 -7.5625 "/></g></g></g><g fill="#fafefa" fill-opacity="1"><g transform="translate(358.130873, 215.411553)"><g/></g></g></svg>